<svg width="205" height="32" viewBox="0 0 205 32" fill="none" xmlns="http://www.w3.org/2000/svg">
<g clip-path="url(#clip0_8173_241)">
<path d="M176.441 9.28808V7.9257H189.639V9.28808H176.441ZM178.018 3.40022V2.03784H188.074V3.40022H184.078C184.279 4.84553 186.568 5.95913 188.726 6.0776L187.92 7.17935C186.449 7.12011 184.03 6.36192 183.046 5.23647C182.05 6.37377 179.643 7.12011 178.172 7.17935L177.366 6.0776C179.524 5.95913 181.825 4.83368 182.014 3.40022H178.03M183.046 16.0526C181.078 16.0526 179.441 14.785 179.441 13.1027C179.441 11.4205 181.078 10.1055 183.046 10.1055C185.015 10.1055 186.651 11.4205 186.651 13.1027C186.651 14.785 185.015 16.0526 183.046 16.0526ZM183.046 11.456C182.145 11.456 181.338 12.2024 181.338 13.0909C181.338 14.0268 182.145 14.7258 183.046 14.7258C183.947 14.7258 184.754 14.0268 184.754 13.0909C184.754 12.155 183.947 11.456 183.046 11.456Z" fill="#221E1F"></path>
<path d="M198.758 5.18924V3.69655H193.458V2.33417H200.656V4.70352C200.656 5.29586 200.513 6.05406 200.359 6.59901C200.976 6.56347 201.545 6.50424 201.901 6.43316V7.64153C201.379 7.80738 200.537 7.96139 199.375 7.96139H197.62V10.4492H195.699V7.96139H192.545V6.61086H198.604C198.675 6.18437 198.735 5.65127 198.735 5.1774M196.268 15.7447C196.007 15.7447 195.794 15.5196 195.794 15.2709V12.8186C195.794 12.1552 195.687 11.6339 195.545 11.3733H197.691V14.3705H204.866V15.7329H196.268M204.593 11.9893H202.814V10.4255H199.921V9.07499H202.814V3.18714C202.814 2.51187 202.707 2.0143 202.577 1.72998H204.723V10.3781C204.723 11.0179 204.676 11.5865 204.605 11.9893H204.593Z" fill="#221E1F"></path>
<path d="M73.6995 9.34744V7.06101H79.344V5.6157C79.344 5.12998 79.261 4.39548 79.0832 3.96899H82.6525V7.06101H88.2971V9.34744H85.4274C86.21 10.2596 86.6844 11.3969 86.6844 12.629C86.6844 15.5433 84.0518 17.9245 81.0042 17.9245C77.9566 17.9245 75.3241 15.5315 75.3241 12.629C75.3241 11.3969 75.7984 10.2596 76.581 9.34744H73.7232H73.6995ZM79.4152 27.6152C78.9883 27.6152 78.6088 27.2361 78.6088 26.8096V22.45C78.6088 21.3482 78.4428 20.4716 78.2056 20.0332H81.8106V25.3288H93.835V27.6152H79.427H79.4152ZM80.9924 9.60807C79.5338 9.60807 78.4309 10.9468 78.4309 12.6408C78.4309 14.3349 79.5338 15.6736 80.9924 15.6736C82.4509 15.6736 83.5538 14.3349 83.5538 12.6408C83.5538 10.9468 82.4628 9.60807 80.9924 9.60807ZM93.5741 12.7593V18.1141C93.5741 19.1921 93.4911 20.1399 93.3725 20.8151H90.3723V6.55159C90.3723 5.42615 90.2063 4.57318 89.9691 4.11116H93.5741V10.4847H96.8351V12.7712H93.5741V12.7593Z" fill="#221E1F"></path>
<path d="M112.631 10.8165V7.16765H100.429V4.89307H115.821V10.2834C115.821 11.2311 115.643 12.2855 115.418 13.1029H118.845V15.3893H109.37V19.3106H115.572V25.0445C115.572 26.1225 115.501 27.0703 115.37 27.7337H112.37V21.6089H100.429V19.3106H106.156V15.3893H97.405V13.1029H112.418C112.548 12.4158 112.631 11.5628 112.631 10.8165Z" fill="#221E1F"></path>
<path d="M132.612 21.0753V24.6056C132.612 25.5889 132.541 26.5366 132.434 27.129H129.316V21.0753H119.639V18.7415H142.289V21.0753H132.612ZM125.865 14.1212H139.573V16.455H123.422C122.983 16.455 122.592 16.0759 122.592 15.6376V7.90164C122.592 6.76435 122.414 5.864 122.201 5.41382H139.454V7.77133H125.865V9.77344H139.265V11.9769H125.865V14.1094V14.1212Z" fill="#221E1F"></path>
<path d="M153.341 12.0602C153.341 15.9577 156.009 20.2226 159.768 21.4665L158.131 23.2909C155.677 22.509 153.02 20.4714 151.585 18.0191C150.127 20.4595 147.471 22.509 145.016 23.2909L143.391 21.4665C147.139 20.2226 149.795 15.9577 149.795 12.0602V9.01553H145.016V6.5277H158.143V9.01553H153.352V12.0602H153.341ZM164.357 15.3654V24.7481C164.357 25.9327 164.274 26.9634 164.143 27.6979H160.882V7.49914C160.882 6.29077 160.693 5.35487 160.432 4.84546H164.357V12.8894H167.903V15.3654H164.357Z" fill="#221E1F"></path>
<path d="M31.8042 10.176C31.9702 10.176 32.2666 10.3182 32.6698 10.7565C34.7569 13.0193 37.093 14.8081 39.0615 15.8862C39.3461 16.0402 39.5002 16.1587 39.5002 16.3008C39.5002 16.4074 39.4884 16.5259 39.2394 16.5259C38.8006 16.5259 36.3103 16.0402 35.6581 15.7322C35.0059 15.4242 33.5829 14.275 31.8872 11.3607C31.6974 11.029 31.4958 10.7447 31.4958 10.484C31.4958 10.2234 31.733 10.176 31.8042 10.176Z" fill="#659AD2"></path>
<path d="M37.4245 1.8481C37.4245 1.8481 37.8396 2.66553 33.8314 3.22233C34.2702 1.99026 34.5548 1.17283 34.5548 1.17283C34.8157 0.438331 34.2346 0 33.8196 0C33.4045 0 33.1081 0.319863 32.9302 0.722654L31.7444 3.44742C30.1791 3.55404 29.0169 3.4948 28.4952 3.44742C27.7718 3.37633 27.5821 3.77913 27.5821 4.18192C27.5821 4.89272 28.8391 5.62722 29.6454 5.5443C30.1553 5.49691 30.4518 5.47322 30.8668 5.43768L26.4318 15.5548C26.2658 15.9339 26.1235 16.5381 26.8824 16.5381C27.6414 16.5381 29.3608 15.8392 29.6454 15.0336C29.764 14.69 30.6534 12.2022 31.6376 9.40635C32.1238 9.31158 33.9144 9.0391 34.4125 9.0391C34.8868 9.0391 35.124 9.25234 35.124 9.50113C35.124 10.0816 33.7247 11.752 31.0091 13.8134C30.7127 14.0384 30.9617 14.2161 31.1159 14.2161C31.5309 14.2161 33.4045 12.9367 34.3295 12.2377C35.3493 11.4677 37.1162 9.47743 37.1162 8.06766C37.1162 7.51086 36.8672 7.00145 35.7643 7.00145C34.6615 7.00145 32.7879 7.23839 32.3728 7.29762C32.6337 6.55127 32.8946 5.81677 33.1436 5.12966C35.2426 4.83349 36.4877 4.65579 37.2229 4.50178C38.2427 4.28854 39.0491 3.70804 39.0491 3.10386C39.0491 1.82441 37.4127 1.83625 37.4127 1.83625L37.4245 1.8481Z" fill="#632C00"></path>
<path d="M1.7664 8.18654H0.497559V6.93078H1.7664V5.24854H3.49772V6.93078H5.13418V8.18654H3.49772V11.2786C3.49772 11.8472 3.65188 12.3685 4.30409 12.3685C4.61241 12.3685 4.90887 12.3092 5.08674 12.1908L5.13418 13.5531C4.77843 13.6598 4.37524 13.7071 3.85347 13.7071C2.50162 13.7071 1.75454 12.866 1.75454 11.5629V8.19839L1.7664 8.18654Z" fill="#632C00"></path>
<path d="M6.45117 6.91866H7.9809V8.4232H8.00462C8.07577 7.80717 8.78727 6.76465 9.81895 6.76465C9.98496 6.76465 10.1628 6.76465 10.3526 6.81204V8.55351C10.1984 8.45874 9.8901 8.41135 9.58178 8.41135C8.18249 8.41135 8.18249 10.1647 8.18249 11.1124V13.541H6.45117V6.91866Z" fill="#632C00"></path>
<path d="M17.5029 13.5409H15.8665V12.6406H15.8427C15.321 13.2803 14.5739 13.6949 13.6608 13.6949C12.0955 13.6949 11.4077 12.5932 11.4077 11.1005V6.91859H13.1272V10.4489C13.1272 11.2664 13.139 12.3563 14.2419 12.3563C15.487 12.3563 15.7597 11.0057 15.7597 10.1528V6.90674H17.4792V13.5291L17.5029 13.5409Z" fill="#632C00"></path>
<path d="M24.3449 13.1739C23.7164 13.5174 22.9931 13.707 22.0681 13.707C19.8862 13.707 18.6055 12.4512 18.6055 10.2714C18.6055 8.35223 19.6253 6.77661 21.6768 6.77661C24.1315 6.77661 24.8311 8.45886 24.8311 10.7808H20.2419C20.3249 11.847 21.072 12.4512 22.1393 12.4512C22.9812 12.4512 23.6927 12.1432 24.3449 11.776V13.1739ZM23.1828 9.5843C23.1354 8.74318 22.744 8.03237 21.7835 8.03237C20.823 8.03237 20.3249 8.70764 20.2538 9.5843H23.1828Z" fill="#632C00"></path>
<path d="M38.3384 7.02486H39.8681V8.5294H39.8918C39.9748 7.91337 40.6745 6.87085 41.7062 6.87085C41.8722 6.87085 42.05 6.87085 42.2398 6.91824V8.65971C42.0856 8.56494 41.7773 8.51755 41.469 8.51755C40.0697 8.51755 40.0697 10.259 40.0697 11.2186V13.6472H38.3502V7.02486H38.3384Z" fill="#632C00"></path>
<path d="M43.2354 4.26514H44.9667V5.91184H43.2354V4.26514ZM43.2354 7.02544H44.9667V13.6478H43.2354V7.02544Z" fill="#632C00"></path>
<path d="M51.7973 13.2681C51.1688 13.6117 50.4455 13.8012 49.5205 13.8012C47.3267 13.8012 46.0579 12.5336 46.0579 10.3657C46.0579 8.44647 47.0777 6.87085 49.1292 6.87085C51.5839 6.87085 52.2835 8.55309 52.2835 10.8751H47.7062C47.7773 11.9413 48.5244 12.5455 49.6035 12.5455C50.4455 12.5455 51.157 12.2374 51.8092 11.882V13.28M50.6352 9.67854C50.5878 8.83742 50.1964 8.12661 49.2359 8.12661C48.2754 8.12661 47.7773 8.80188 47.7062 9.67854H50.647H50.6352Z" fill="#632C00"></path>
<path d="M53.3034 7.02486H54.9398V7.92521H54.9635C55.509 7.16702 56.2442 6.87085 57.1336 6.87085C58.7108 6.87085 59.3867 7.9726 59.3867 9.47714V13.6472H57.6554V10.1169C57.6554 9.29944 57.6435 8.20954 56.5407 8.20954C55.2956 8.20954 55.0228 9.56007 55.0228 10.413V13.6472H53.2915V7.02486H53.3034Z" fill="#632C00"></path>
<path d="M65.2799 12.9011H65.2561C64.7462 13.5408 64.0347 13.8014 63.2165 13.8014C61.1887 13.8014 60.4417 12.131 60.4417 10.3185C60.4417 8.50593 61.1887 6.87107 63.2165 6.87107C64.0822 6.87107 64.6869 7.16724 65.1969 7.79512H65.2206V4.00415H66.9519V13.6474H65.2799V12.9011ZM63.7027 12.4628C64.853 12.4628 65.2206 11.2544 65.2206 10.3185C65.2206 9.38259 64.7818 8.20976 63.679 8.20976C62.5762 8.20976 62.256 9.42998 62.256 10.3185C62.256 11.207 62.5762 12.4628 63.7027 12.4628Z" fill="#632C00"></path>
</g>
<defs>
<clipPath id="clip0_8173_241">
<rect width="205" height="32" fill="white"></rect>
</clipPath>
</defs>
</svg>